<svg version="1.1" xmlns="http://www.w3.org/2000/svg" xmlns:xlink="http://www.w3.org/1999/xlink" width="16" height="16" viewBox="0,0,256,256"><g fill="#ff4000" fill-rule="nonzero" stroke="none" stroke-width="1" stroke-linecap="butt" stroke-linejoin="miter" stroke-miterlimit="10" stroke-dasharray="" stroke-dashoffset="0" font-family="none" font-weight="none" font-size="none" text-anchor="none" style="mix-blend-mode: normal"><g transform="translate(0,8) scale(16,16)"><path d="M5.5,5.5c0.27614,0 0.5,0.22386 0.5,0.5v6c0,0.27614 -0.22386,0.5 -0.5,0.5c-0.27614,0 -0.5,-0.22386 -0.5,-0.5v-6c0,-0.27614 0.22386,-0.5 0.5,-0.5M8,5.5c0.27614,0 0.5,0.22386 0.5,0.5v6c0,0.27614 -0.22386,0.5 -0.5,0.5c-0.27614,0 -0.5,-0.22386 -0.5,-0.5v-6c0,-0.27614 0.22386,-0.5 0.5,-0.5M11,6c0,-0.27614 -0.22386,-0.5 -0.5,-0.5c-0.27614,0 -0.5,0.22386 -0.5,0.5v6c0,0.27614 0.22386,0.5 0.5,0.5c0.27614,0 0.5,-0.22386 0.5,-0.5z"></path><path d="M14.5,3c0,0.55228 -0.44772,1 -1,1h-0.5v9c0,1.10457 -0.89543,2 -2,2h-6c-1.10457,0 -2,-0.89543 -2,-2v-9h-0.5c-0.55228,0 -1,-0.44772 -1,-1v-1c0,-0.55228 0.44772,-1 1,-1h3.5c0,-0.55228 0.44772,-1 1,-1h2c0.55228,0 1,0.44772 1,1h3.5c0.55228,0 1,0.44772 1,1zM4.118,4l-0.118,0.059v8.941c0,0.55228 0.44772,1 1,1h6c0.55228,0 1,-0.44772 1,-1v-8.941l-0.118,-0.059zM2.5,3h11v-1h-11z"></path></g></g></svg>